<svg xmlns="http://www.w3.org/2000/svg" width="366" height="35.994" viewBox="0 0 366 35.994">
     <defs>
          <style>.a{fill:#ccdb2a;}.b{fill:#939598;}</style>
     </defs>
     <g transform="translate(0 0.2)">
          <g transform="translate(0 -0.2)">
               <path class="a" d="M0,1.2c2.88.18,5.759.3,8.579.3,1.5,0,3-.06,4.5-.12l4.5-.18V2.46c-.54.06-1.08.18-1.68.24a6.26,6.26,0,0,0-1.5.48,2.986,2.986,0,0,0-1.02.9,2.945,2.945,0,0,0-.36,1.62,9.337,9.337,0,0,0,.78,2.88c.54,1.38,1.2,3.119,2.1,5.1.84,1.98,1.8,4.259,2.88,6.719s2.1,5.039,3.179,7.679c1.14-2.88,2.22-5.579,3.239-8.039s1.92-4.679,2.7-6.6,1.38-3.539,1.86-4.919a11.079,11.079,0,0,0,.66-2.94,2.091,2.091,0,0,0-.54-1.5,2.947,2.947,0,0,0-1.26-.96,6.733,6.733,0,0,0-1.56-.48,6.724,6.724,0,0,0-1.44-.18V1.2c1.08.06,2.22.12,3.359.18s2.28.12,3.359.12c1.02,0,2.04-.06,3.059-.12l3.06-.18V2.46a12.094,12.094,0,0,0-1.74.48,4.19,4.19,0,0,0-1.26.66,4.848,4.848,0,0,0-.96.96,9.265,9.265,0,0,0-.84,1.38C30.895,11.458,28.5,16.617,26.4,21.477c-2.1,4.8-4.019,9.538-5.7,14.158h-2.88c-1.02-2.22-2.04-4.5-3.059-6.959-1.02-2.4-2.04-4.919-3.119-7.439s-2.16-5.1-3.239-7.679-2.22-5.1-3.359-7.619a5.307,5.307,0,0,0-1.8-2.4A7.929,7.929,0,0,0,0,2.46Z" transform="translate(0 -0.36)"/>
               <path class="a" d="M52.56,33.714a7.77,7.77,0,0,0,2.4-.6,4.632,4.632,0,0,0,1.62-1.14,6.888,6.888,0,0,0,1.14-1.68c.3-.66.66-1.38,1.02-2.22l10.138-23.7-.96-2.46a28.341,28.341,0,0,0,3.239-.78A19.425,19.425,0,0,0,74.276,0L85.555,30.535a4.259,4.259,0,0,0,2.16,2.4,7.525,7.525,0,0,0,3.179.78v1.26c-.66-.06-1.38-.06-2.22-.12s-1.68-.06-2.46-.06H81.6c-1.44,0-2.88,0-4.319.06s-2.88.06-4.319.18v-1.26a10.211,10.211,0,0,0,4.019-.9,2.218,2.218,0,0,0,1.32-2.04,5.275,5.275,0,0,0-.18-1.2c-.12-.48-.3-.96-.48-1.5a15.623,15.623,0,0,0-.6-1.5c-.18-.48-.36-.9-.48-1.26l-1.74-5.159H64.378l-2.64,7.319c-.18.48-.36.96-.54,1.38a4.768,4.768,0,0,0-.3,1.74,1.683,1.683,0,0,0,.42,1.14,3.452,3.452,0,0,0,1.14.9,11.33,11.33,0,0,0,1.5.66,7.729,7.729,0,0,0,1.5.36v1.26c-1.08-.06-2.22-.12-3.359-.18s-2.22-.06-3.359-.06c-1.02,0-2.1,0-3.119.06s-2.1.06-3.119.18v-1.26ZM73.916,18.237,69.657,6.119H69.6L65.1,18.237Z" transform="translate(-21.005 0.12)"/>
               <path class="a" d="M142.756,10.958a12.273,12.273,0,0,0-1.68-3.6,13.728,13.728,0,0,0-2.7-2.88,12.7,12.7,0,0,0-3.359-1.98,9.931,9.931,0,0,0-3.659-.72,6.6,6.6,0,0,0-3.959,1.2,4.331,4.331,0,0,0-1.62,3.659,4.029,4.029,0,0,0,1.5,3.179A14.661,14.661,0,0,0,131,12.158c1.5.72,3.059,1.44,4.8,2.16a26.491,26.491,0,0,1,4.8,2.64,14.389,14.389,0,0,1,3.719,3.659,9.281,9.281,0,0,1,1.5,5.279,8.8,8.8,0,0,1-.9,4.019,9.4,9.4,0,0,1-2.46,3.06,11.921,11.921,0,0,1-3.9,1.98,16.89,16.89,0,0,1-5.1.72,12.518,12.518,0,0,1-2.58-.24c-.84-.18-1.74-.3-2.58-.54-.84-.18-1.68-.36-2.58-.54a12.518,12.518,0,0,0-2.58-.24,2.066,2.066,0,0,0-.54.06l-.72.18c-.24.06-.54.12-.78.18s-.42.12-.6.18c-.3-1.92-.6-3.9-.9-5.879s-.72-3.959-1.2-5.939h1.14a13.8,13.8,0,0,0,1.86,3.779,16.17,16.17,0,0,0,3.06,3.359,13.716,13.716,0,0,0,3.779,2.34,9.764,9.764,0,0,0,4.019.9,16.9,16.9,0,0,0,3.119-.24,8.026,8.026,0,0,0,2.4-.84,4.477,4.477,0,0,0,1.56-1.62,5.317,5.317,0,0,0,.54-2.58,4.584,4.584,0,0,0-1.5-3.539,16.69,16.69,0,0,0-3.779-2.58c-1.5-.78-3.12-1.56-4.859-2.28a36.8,36.8,0,0,1-4.859-2.46,15.584,15.584,0,0,1-3.779-3.3A7.347,7.347,0,0,1,119.6,9.1c0-3.239.96-5.579,2.94-7.079,1.98-1.44,4.979-2.22,9-2.22a16.42,16.42,0,0,1,3,.24c.96.18,1.86.36,2.76.54.84.18,1.68.36,2.46.54a9.021,9.021,0,0,0,2.1.24h1.86c-.06.6-.06,1.14-.12,1.68a14.617,14.617,0,0,0-.06,1.62c0,1.02.06,2.04.12,3.119s.18,2.1.24,3.119h-1.14Z" transform="translate(-47.372 0.2)"/>
               <path class="a" d="M169.8,34.195a14.134,14.134,0,0,0,2.82-.42,3.591,3.591,0,0,0,1.62-1.02,4.114,4.114,0,0,0,.78-1.8,16.567,16.567,0,0,0,.18-2.64V8.579a15.5,15.5,0,0,0-.18-2.52,3.525,3.525,0,0,0-.78-1.8,3.738,3.738,0,0,0-1.62-1.14,9.02,9.02,0,0,0-2.82-.42V1.2c1.74.06,3.539.12,5.339.18s3.539.12,5.339.12c3.359,0,6.719-.06,10.018-.12s6.719-.12,10.138-.18c-.06.6-.06,1.26-.06,1.86v1.8c0,1.08,0,2.1.06,3.179a20.966,20.966,0,0,0,.36,2.88l-1.14.18A11.344,11.344,0,0,0,195.9,5.159q-2.7-1.98-7.919-1.98h-5.819v12.6h2.7a9.667,9.667,0,0,0,2.64-.36,8.66,8.66,0,0,0,2.4-1.08,6.737,6.737,0,0,0,1.92-1.98,10.2,10.2,0,0,0,1.26-3.059h1.02c-.06,1.2-.06,2.46-.12,3.659-.06,1.26-.06,2.46-.06,3.659,0,1.26,0,2.46.06,3.719.06,1.2.12,2.46.12,3.719h-1.02a11.4,11.4,0,0,0-1.2-3.239,8.943,8.943,0,0,0-1.8-2.1,7.067,7.067,0,0,0-2.34-1.14,11.137,11.137,0,0,0-2.88-.36h-2.7V32.635a17.3,17.3,0,0,0,2.76.54,29.461,29.461,0,0,0,3.419.18,17.774,17.774,0,0,0,9.178-2.4,19.251,19.251,0,0,0,6.959-7.5l.96.72c-.84,1.86-1.68,3.659-2.46,5.519s-1.44,3.719-2.04,5.639l-8.039-.18c-2.64-.06-5.339-.06-8.039-.06h-9c-1.32,0-2.46.06-3.479.06-1.02.06-1.86.06-2.52.12v-1.08Z" transform="translate(-67.937 -0.36)"/>
          </g>
          <g transform="translate(139.237 -0.2)">
               <path class="b" d="M256.456,10.958a12.275,12.275,0,0,0-1.68-3.6,13.728,13.728,0,0,0-2.7-2.88,12.7,12.7,0,0,0-3.359-1.98,9.931,9.931,0,0,0-3.659-.72,6.6,6.6,0,0,0-3.959,1.2,4.331,4.331,0,0,0-1.62,3.659,4.029,4.029,0,0,0,1.5,3.179,14.661,14.661,0,0,0,3.719,2.34c1.5.72,3.06,1.44,4.8,2.16a26.491,26.491,0,0,1,4.8,2.64,14.39,14.39,0,0,1,3.719,3.659,9.281,9.281,0,0,1,1.5,5.279,8.8,8.8,0,0,1-.9,4.019,9.4,9.4,0,0,1-2.46,3.06,11.921,11.921,0,0,1-3.9,1.98,16.89,16.89,0,0,1-5.1.72,12.518,12.518,0,0,1-2.58-.24c-.84-.18-1.74-.3-2.58-.54-.84-.18-1.68-.36-2.58-.54a12.518,12.518,0,0,0-2.58-.24,2.066,2.066,0,0,0-.54.06l-.72.18c-.24.06-.54.12-.78.18s-.42.12-.6.18c-.3-1.92-.6-3.9-.9-5.879s-.72-3.959-1.2-5.939h1.14a13.8,13.8,0,0,0,1.86,3.779,16.17,16.17,0,0,0,3.059,3.359,13.716,13.716,0,0,0,3.779,2.34,9.764,9.764,0,0,0,4.019.9,16.9,16.9,0,0,0,3.12-.24,8.027,8.027,0,0,0,2.4-.84,4.478,4.478,0,0,0,1.56-1.62,5.317,5.317,0,0,0,.54-2.58,4.584,4.584,0,0,0-1.5-3.539,16.689,16.689,0,0,0-3.779-2.58c-1.5-.78-3.119-1.56-4.859-2.28a36.8,36.8,0,0,1-4.859-2.46,15.584,15.584,0,0,1-3.779-3.3A7.347,7.347,0,0,1,233.3,9.1c0-3.239.96-5.579,2.94-7.079,1.98-1.44,4.979-2.22,9-2.22a16.419,16.419,0,0,1,3,.24c.96.18,1.86.36,2.76.54.84.18,1.68.36,2.46.54a9.021,9.021,0,0,0,2.1.24h1.86c-.06.6-.06,1.14-.12,1.68a14.617,14.617,0,0,0-.06,1.62c0,1.02.06,2.04.12,3.119s.18,2.1.24,3.119h-1.14Z" transform="translate(-232.1 0.2)"/>
               <path class="b" d="M305.157,0A26,26,0,0,1,313.2,1.2a18.8,18.8,0,0,1,6.3,3.479,15.517,15.517,0,0,1,4.079,5.639,18.873,18.873,0,0,1,1.44,7.559,18.873,18.873,0,0,1-1.44,7.559,16.041,16.041,0,0,1-4.079,5.639,17.814,17.814,0,0,1-6.3,3.479,24.569,24.569,0,0,1-8.039,1.2,26,26,0,0,1-8.039-1.2,18.8,18.8,0,0,1-6.3-3.479,15.517,15.517,0,0,1-4.079-5.639,18.873,18.873,0,0,1-1.44-7.559,18.873,18.873,0,0,1,1.44-7.559,16.041,16.041,0,0,1,4.079-5.639,17.814,17.814,0,0,1,6.3-3.479A26,26,0,0,1,305.157,0Zm0,1.86a11.012,11.012,0,0,0-9.478,4.859,15.771,15.771,0,0,0-2.28,5.1,25.158,25.158,0,0,0-.72,6.119A25.017,25.017,0,0,0,293.4,24a16.1,16.1,0,0,0,2.28,5.159,11.012,11.012,0,0,0,9.478,4.859,11.013,11.013,0,0,0,9.478-4.859A15.533,15.533,0,0,0,316.915,24a25.017,25.017,0,0,0,.72-6.059,25.155,25.155,0,0,0-.72-6.119,15.772,15.772,0,0,0-2.28-5.1,11.605,11.605,0,0,0-3.9-3.539A10.972,10.972,0,0,0,305.157,1.86Z" transform="translate(-253.385 0.12)"/>
               <path class="b" d="M356.12,1.2c3,.18,6.059.3,9.059.3,3.06,0,6.119-.12,9.178-.3l-.18,1.26a12.942,12.942,0,0,0-3.059.42,3.279,3.279,0,0,0-1.68.96,3.557,3.557,0,0,0-.72,1.74,18.29,18.29,0,0,0-.18,2.88V25.676a7.293,7.293,0,0,0,.54,2.76,6.852,6.852,0,0,0,1.74,2.46,8.6,8.6,0,0,0,3,1.74,12.15,12.15,0,0,0,4.439.66,11.827,11.827,0,0,0,5.159-.96A9.814,9.814,0,0,0,386.655,30a8.4,8.4,0,0,0,1.62-3.059,11.544,11.544,0,0,0,.48-3.059V11.158a28.161,28.161,0,0,0-.24-4.259,6.224,6.224,0,0,0-.96-2.64,3.42,3.42,0,0,0-1.8-1.38,8.243,8.243,0,0,0-2.94-.42V1.2c.78.06,1.8.12,3,.18s2.46.12,3.779.12c1.08,0,2.16-.06,3.179-.12,1.08-.06,2.1-.12,3.119-.18V2.46a9.789,9.789,0,0,0-2.7.42,2.966,2.966,0,0,0-1.5.96,3.531,3.531,0,0,0-.66,1.74c-.06.72-.12,1.68-.12,2.88V22.676c0,4.319-1.2,7.679-3.659,10.018S381.376,36.234,377,36.234a20.517,20.517,0,0,1-6.779-.96,15.368,15.368,0,0,1-4.739-2.52,9.98,9.98,0,0,1-2.76-3.479,8.979,8.979,0,0,1-.9-3.839V8.459a14.735,14.735,0,0,0-.18-2.46,4.064,4.064,0,0,0-.72-1.8A3.9,3.9,0,0,0,359.18,3,10.527,10.527,0,0,0,356,2.46V1.2Z" transform="translate(-281.672 -0.36)"/>
               <path class="b" d="M426.1,1.32l3.779.18c1.2.06,2.64.06,4.2.06q2.79,0,5.579-.18c1.86-.12,3.839-.18,5.879-.18a13.769,13.769,0,0,1,4.859.78,11.585,11.585,0,0,1,3.659,2.16,9.31,9.31,0,0,1,2.34,3.179,9.525,9.525,0,0,1,.78,3.959,7.521,7.521,0,0,1-.6,3.179,8.446,8.446,0,0,1-1.62,2.4,8.927,8.927,0,0,1-2.46,1.68,13.1,13.1,0,0,1-3.06,1.02c.72,1.2,1.62,2.58,2.7,4.2a53.179,53.179,0,0,0,3.539,4.679,28.88,28.88,0,0,0,4.2,3.959,10.1,10.1,0,0,0,4.559,2.1v.96c-1.02-.06-1.98-.12-2.939-.18s-1.92-.06-2.94-.06c-.84,0-1.74,0-2.58.06s-1.74.06-2.58.18a86.292,86.292,0,0,1-6.059-7.259,67.982,67.982,0,0,1-5.039-7.919c-.6-.06-1.26-.18-1.98-.3a4.5,4.5,0,0,1-1.68-.6v9c0,1.2.06,2.1.12,2.88a3.042,3.042,0,0,0,.66,1.74,3.079,3.079,0,0,0,1.56.9,14.139,14.139,0,0,0,2.88.42v1.26q-1.8-.09-3.959-.18c-1.44-.06-2.88-.06-4.379-.06-1.62,0-3.18,0-4.739.06s-3.12.06-4.679.18v-1.26a25.189,25.189,0,0,0,3.059-.42,3.225,3.225,0,0,0,1.68-.9,3.327,3.327,0,0,0,.72-1.74,18.286,18.286,0,0,0,.18-2.88V8.579a16.565,16.565,0,0,0-.18-2.64,4.064,4.064,0,0,0-.72-1.8A3.614,3.614,0,0,0,429.16,3a14.235,14.235,0,0,0-3.059-.54Zm12.478,15.957a7.767,7.767,0,0,0,3.479.78,7.918,7.918,0,0,0,5.519-1.92,7.192,7.192,0,0,0,2.1-5.579,9.433,9.433,0,0,0-.48-2.94,6.122,6.122,0,0,0-1.44-2.4,6.471,6.471,0,0,0-2.22-1.56,7.48,7.48,0,0,0-2.88-.6c-.72,0-1.38.06-2.04.12a9.084,9.084,0,0,0-2.04.48Z" transform="translate(-309.719 -0.36)"/>
               <path class="b" d="M520.995,14.458a15.526,15.526,0,0,0-1.44-4.559,16.155,16.155,0,0,0-2.7-3.9A12.321,12.321,0,0,0,513.2,3.3a10.053,10.053,0,0,0-4.439-1.02,9.378,9.378,0,0,0-5.219,1.38A10.7,10.7,0,0,0,500.118,7.2a15.987,15.987,0,0,0-1.86,4.8,25.562,25.562,0,0,0-.54,5.159,18.688,18.688,0,0,0,.9,5.939,14.5,14.5,0,0,0,2.58,4.739,12.451,12.451,0,0,0,4.259,3.119,15.5,15.5,0,0,0,6,1.14,13,13,0,0,0,4.439-.72,14.6,14.6,0,0,0,3.6-1.86,16.57,16.57,0,0,0,2.82-2.58c.84-.96,1.5-1.92,2.16-2.82l1.26,1.32a21.685,21.685,0,0,1-7.319,7.739,18.892,18.892,0,0,1-10.2,2.7,19.616,19.616,0,0,1-7.139-1.26,16.22,16.22,0,0,1-5.639-3.6,15.951,15.951,0,0,1-3.719-5.639A19.466,19.466,0,0,1,490.4,18a18.944,18.944,0,0,1,1.38-7.319,16.374,16.374,0,0,1,3.9-5.639A19.831,19.831,0,0,1,509.117,0a26.418,26.418,0,0,1,3.419.3c1.32.18,2.58.42,3.779.66,1.26.24,2.34.48,3.24.66.96.18,1.5.3,1.68.3a1.505,1.505,0,0,0,.6-.06c0,.72,0,1.38-.06,1.98-.06.66-.06,1.32-.06,1.98q0,2.16.18,4.319c.12,1.44.24,2.88.42,4.319h-1.32Z" transform="translate(-335.445 0.12)"/>
               <path class="b" d="M550.7,34.195a14.134,14.134,0,0,0,2.82-.42,3.59,3.59,0,0,0,1.62-1.02,4.114,4.114,0,0,0,.78-1.8,16.565,16.565,0,0,0,.18-2.64V8.579a15.5,15.5,0,0,0-.18-2.52,3.524,3.524,0,0,0-.78-1.8,3.738,3.738,0,0,0-1.62-1.14,9.02,9.02,0,0,0-2.82-.42V1.2c1.74.06,3.539.12,5.339.18s3.539.12,5.339.12c3.359,0,6.659-.06,10.018-.12,3.3-.06,6.719-.12,10.138-.18-.06.6-.06,1.26-.06,1.86v1.8c0,1.08,0,2.1.06,3.179a20.957,20.957,0,0,0,.36,2.88l-1.14.18A11.345,11.345,0,0,0,576.8,5.159q-2.7-1.98-7.919-1.98h-5.819v12.6h2.7a9.667,9.667,0,0,0,2.64-.36,8.659,8.659,0,0,0,2.4-1.08,6.736,6.736,0,0,0,1.92-1.98,10.2,10.2,0,0,0,1.26-3.059H575c-.06,1.2-.06,2.46-.12,3.659-.06,1.26-.06,2.46-.06,3.659,0,1.26,0,2.46.06,3.719.06,1.2.12,2.46.12,3.719h-1.02a11.4,11.4,0,0,0-1.2-3.239,8.944,8.944,0,0,0-1.8-2.1,7.067,7.067,0,0,0-2.34-1.14,11.137,11.137,0,0,0-2.88-.36h-2.7V32.635a17.3,17.3,0,0,0,2.76.54,29.461,29.461,0,0,0,3.419.18,17.774,17.774,0,0,0,9.179-2.4,19.251,19.251,0,0,0,6.959-7.5l.96.72c-.84,1.86-1.68,3.659-2.46,5.519s-1.44,3.719-2.04,5.639l-8.039-.18c-2.64-.06-5.339-.06-8.039-.06h-9c-1.32,0-2.46.06-3.479.06-1.02.06-1.86.06-2.52.12v-1.08Z" transform="translate(-359.571 -0.36)"/>
          </g>
     </g>
</svg>